<svg width="16" height="16" viewBox="0 0 16 16" fill="none" xmlns="http://www.w3.org/2000/svg">
<path d="M7.17154 6.30298C6.94936 6.16968 6.66671 6.32971 6.66671 6.58881V9.41135C6.66671 9.67045 6.94937 9.83049 7.17154 9.69718L9.52366 8.28591C9.73944 8.15644 9.73944 7.84372 9.52365 7.71425L7.17154 6.30298Z" fill="#414141"/>
<path fill-rule="evenodd" clip-rule="evenodd" d="M3.33337 2.66675C2.2288 2.66675 1.33337 3.56218 1.33337 4.66675V11.3334C1.33337 12.438 2.2288 13.3334 3.33337 13.3334H12.6667C13.7713 13.3334 14.6667 12.438 14.6667 11.3334V4.66675C14.6667 3.56218 13.7713 2.66675 12.6667 2.66675H3.33337ZM2.66671 4.66675C2.66671 4.29856 2.96518 4.00008 3.33337 4.00008H12.6667C13.0349 4.00008 13.3334 4.29856 13.3334 4.66675V11.3334C13.3334 11.7016 13.0349 12.0001 12.6667 12.0001H3.33337C2.96518 12.0001 2.66671 11.7016 2.66671 11.3334V4.66675Z" fill="#414141"/>
</svg>
